<svg width="24" height="23" viewBox="0 0 24 23" fill="none" xmlns="http://www.w3.org/2000/svg">
<path d="M24 2.65405C24 2.2326 23.9027 1.81722 23.7163 1.44227C23.5298 1.06733 23.2596 0.743596 22.9279 0.497866C22.5962 0.252136 22.2125 0.0914718 21.8087 0.0291662C21.4049 -0.0331394 20.9925 0.00470511 20.6057 0.139568L1.74857 6.71331C1.23922 6.89089 0.796601 7.2288 0.482953 7.67951C0.169305 8.13023 0.000403738 8.67108 0 9.22602V11.9971C0.000160891 12.5516 0.168562 13.0921 0.48156 13.5428C0.794557 13.9934 1.23643 14.3316 1.74514 14.5098L5.14286 15.7024V17.6896C5.14243 18.9633 5.58569 20.1947 6.39176 21.1592C7.19783 22.1236 8.31296 22.7567 9.53367 22.9429C10.7544 23.1292 11.9993 22.8562 13.0412 22.1737C14.0831 21.4913 14.8525 20.4449 15.2091 19.2255L20.6023 21.1136C20.9892 21.2491 21.4018 21.2875 21.8059 21.2256C22.21 21.1638 22.5941 21.0034 22.9262 20.7578C23.2583 20.5122 23.5289 20.1884 23.7157 19.8133C23.9024 19.4382 23.9999 19.0226 24 18.6009V2.65405ZM6.85714 16.3005L13.584 18.6575C13.358 19.4793 12.8517 20.189 12.1585 20.6556C11.4653 21.1222 10.632 21.3143 9.81235 21.1963C8.9927 21.0784 8.24204 20.6584 7.69889 20.0139C7.15574 19.3694 6.85677 18.5438 6.85714 17.6896V16.3005Z" fill="white"/>
</svg>
